<svg width="165" height="72" viewBox="0 0 165 72" fill="none" xmlns="http://www.w3.org/2000/svg">
<g clip-path="url(#clip0_2533_3412)">
<path d="M50.7076 7.71429V0L0 0L0 72H8.6269L8.6269 43.1872C8.6269 39.4903 5.6131 39.8251 3.47043 39.4476C3.30885 39.4191 3.32993 39.1769 3.49853 39.1769H50.7076V31.4626L8.6269 31.4626L8.6269 7.71429L50.7076 7.71429Z" fill="white"/>
<path d="M141.085 0L110.02 0V72H118.646V43.1801C118.646 39.4903 115.633 39.8251 113.49 39.4404C113.328 39.4119 113.349 39.1698 113.518 39.1698H141.092C157.172 39.1698 165.005 30.0024 165.005 19.5884C165.005 9.17452 157.165 0 141.085 0ZM140.066 31.4555L118.646 31.4555V7.71429L140.066 7.71429C150.274 7.71429 156.372 12.152 156.372 19.5813C156.372 27.0107 150.274 31.4484 140.066 31.4484V31.4555Z" fill="white"/>
<path d="M95.2789 50.9014C90.5369 44.7043 83.7787 40.4162 76.2126 38.7993C76.051 38.7637 76.0861 38.5144 76.2547 38.5286L81.6922 39.0628C84.5725 39.3478 87.481 39.2552 90.3261 38.7423C102.093 36.6267 107.854 28.599 107.854 19.6382C107.854 9.18868 100.021 -0.00720215 83.9403 -0.00720215L52.875 -0.00720215L52.875 71.9999H61.5019V39.1697C70.5292 39.1697 79.0086 43.7142 84.5515 50.9512L100.435 71.6865C100.583 71.8859 100.822 71.9999 101.068 71.9999H111.444L95.2789 50.9014ZM61.4949 7.71421L82.9146 7.71421C93.1222 7.71421 99.22 12.1519 99.22 19.5812C99.22 27.0106 93.1222 31.4483 82.9146 31.4483L61.4949 31.4483V7.71421Z" fill="white"/>
</g>
<defs>
<clipPath id="clip0_2533_3412">
<rect width="165" height="72" fill="white"/>
</clipPath>
</defs>
</svg>
