<svg width="27" height="27" viewBox="0 0 27 27" fill="none" xmlns="http://www.w3.org/2000/svg">
<g clip-path="url(#clip0_2533_3403)">
<path d="M18.5741 16.8683C13.9278 16.8683 10.1484 13.0859 10.1484 8.43235C10.1484 3.77878 13.9242 0 18.5741 0C23.2239 0 26.9997 3.78237 26.9997 8.43235C26.9997 13.0823 23.2203 16.8683 18.5741 16.8683ZM18.5741 2.28376C15.1852 2.28376 12.4268 5.04435 12.4268 8.43593C12.4268 11.8275 15.1852 14.5881 18.5741 14.5881C21.963 14.5881 24.7213 11.8275 24.7213 8.43593C24.7213 5.04435 21.963 2.28376 18.5741 2.28376Z" fill="#646668"/>
<path d="M12.7212 12.4977L0 25.229L1.77316 27.0036L14.4943 14.2723L12.7212 12.4977Z" fill="#646668"/>
</g>
<defs>
<clipPath id="clip0_2533_3403">
<rect width="27" height="27" fill="white"/>
</clipPath>
</defs>
</svg>
