<svg width="30" height="27" viewBox="0 0 30 27" fill="none" xmlns="http://www.w3.org/2000/svg">
<g clip-path="url(#clip0_2533_3443)">
<path d="M14.9971 16.9538C10.2468 16.9538 6.38281 13.1523 6.38281 8.47511C6.38281 3.79795 10.2468 0 14.9971 0C19.7475 0 23.6115 3.80155 23.6115 8.47511C23.6115 13.1487 19.7475 16.9538 14.9971 16.9538ZM14.9971 2.29534C11.5324 2.29534 8.7122 5.06993 8.7122 8.47871C8.7122 11.8875 11.5324 14.6621 14.9971 14.6621C18.4619 14.6621 21.2821 11.8875 21.2821 8.47871C21.2821 5.06993 18.4619 2.29534 14.9971 2.29534Z" fill="#646668"/>
<path d="M2.44293 26.9999C3.01795 25.2956 3.86766 23.5587 5.0763 21.6237C5.31803 21.2382 5.71725 20.9895 6.17507 20.9355C9.12343 20.604 12.0938 20.4382 14.9982 20.4382C17.9026 20.4382 20.8692 20.604 23.8213 20.9355C24.2791 20.9859 24.6783 21.2382 24.92 21.6237C26.1287 23.5551 26.9821 25.292 27.5534 26.9999H29.9963C29.37 24.8848 28.3775 22.7768 26.9051 20.4238C26.2862 19.4365 25.257 18.7915 24.085 18.6618C21.0487 18.3194 17.9905 18.1465 14.9982 18.1465C12.0059 18.1465 8.94763 18.3194 5.91137 18.6618C4.73935 18.7915 3.71017 19.4365 3.0912 20.4238C1.61519 22.7768 0.626298 24.8884 -0.00366211 27.0036H2.44293V26.9999Z" fill="#646668"/>
</g>
<defs>
<clipPath id="clip0_2533_3443">
<rect width="30" height="27" fill="white"/>
</clipPath>
</defs>
</svg>
